<?xml version="1.0" encoding="UTF-8" standalone="no"?>
<svg
   xmlns:dc="http://purl.org/dc/elements/1.1/"
   xmlns:cc="http://creativecommons.org/ns#"
   xmlns:rdf="http://www.w3.org/1999/02/22-rdf-syntax-ns#"
   xmlns:svg="http://www.w3.org/2000/svg"
   xmlns="http://www.w3.org/2000/svg"
   xmlns:sodipodi="http://sodipodi.sourceforge.net/DTD/sodipodi-0.dtd"
   xmlns:inkscape="http://www.inkscape.org/namespaces/inkscape"
   width="450"
   height="150"
   viewBox="0 0 119.0625 39.687502"
   version="1.1"
   id="svg8"
   inkscape:version="1.0.2 (1.0.2+r75+1)"
   sodipodi:docname="meteor_sprite.svg"
   inkscape:export-filename="/home/agoryu/Projects/Space_Attack/asset/Pictures/meteor_sprite.png"
   inkscape:export-xdpi="96"
   inkscape:export-ydpi="96">
  <defs
     id="defs2" />
  <sodipodi:namedview
     id="base"
     pagecolor="#ffffff"
     bordercolor="#666666"
     borderopacity="1.0"
     inkscape:pageopacity="0.0"
     inkscape:pageshadow="2"
     inkscape:zoom="1.979899"
     inkscape:cx="257.08919"
     inkscape:cy="29.244779"
     inkscape:document-units="mm"
     inkscape:current-layer="layer1"
     inkscape:document-rotation="0"
     showgrid="false"
     inkscape:window-width="1920"
     inkscape:window-height="1016"
     inkscape:window-x="0"
     inkscape:window-y="27"
     inkscape:window-maximized="1"
     units="px">
    <inkscape:grid
       type="xygrid"
       id="grid833"
       spacingx="2.6458334"
       spacingy="2.6458334" />
  </sodipodi:namedview>
  <metadata
     id="metadata5">
    <rdf:RDF>
      <cc:Work
         rdf:about="">
        <dc:format>image/svg+xml</dc:format>
        <dc:type
           rdf:resource="http://purl.org/dc/dcmitype/StillImage" />
        <dc:title />
      </cc:Work>
    </rdf:RDF>
  </metadata>
  <g
     inkscape:label="Calque 1"
     inkscape:groupmode="layer"
     id="layer1">
    <g
       id="g949">
      <path
         id="path835"
         style="fill:#7c7c7c;fill-opacity:1;stroke:#000000;stroke-width:0.176623;stroke-miterlimit:4;stroke-dasharray:none;stroke-opacity:1"
         d="m 59.705019,2.6458478 a 17.757148,17.216854 0 0 0 -11.140705,3.8348557 2.2196435,2.7184507 0 0 1 0.07353,0.6344828 2.2196435,2.7184507 0 0 1 -2.163458,2.7789779 2.2196435,2.7184507 0 0 1 -1.016181,-0.2668894 17.757148,17.216854 0 0 0 -3.478772,10.2557802 17.757148,17.216854 0 0 0 5.898356,12.794417 7.9943942,6.3766497 23.598717 0 1 3.138022,-1.265779 6.6589309,6.3421022 0 0 1 1.373058,-0.213086 l 0.244854,-0.009 a 6.6589309,6.3421022 0 0 1 4.2253,1.337279 7.9943942,6.3766497 23.598717 0 1 4.055358,4.514823 A 17.757148,17.216854 0 0 0 76.670041,25.045484 5.8174574,10.787104 38.274077 0 1 76.18432,24.741605 5.8174574,10.787104 38.274077 0 1 76.729172,14.865099 17.757148,17.216854 0 0 0 59.705019,2.6458341 Z" />
      <circle
         style="fill:#252525;fill-opacity:0.309236;stroke:#000000;stroke-width:0.101702;stroke-miterlimit:4;stroke-dasharray:none;stroke-opacity:1"
         id="path841"
         sodipodi:type="arc"
         sodipodi:cx="64.842003"
         sodipodi:cy="13.557163"
         sodipodi:rx="2.8855367"
         sodipodi:ry="2.9449883"
         sodipodi:start="0"
         sodipodi:end="6.2704474"
         sodipodi:arc-type="arc"
         sodipodi:open="true"
         d="m 67.72754,13.557163 a 2.8855367,2.9449883 0 0 1 -2.876348,2.944974 2.8855367,2.9449883 0 0 1 -2.894667,-2.926217 2.8855367,2.9449883 0 0 1 2.857912,-2.963611 2.8855367,2.9449883 0 0 1 2.912868,2.907342" />
      <circle
         style="fill:#4d4d4d;fill-opacity:0.400769;stroke:#000000;stroke-width:0.196188;stroke-miterlimit:4;stroke-dasharray:none;stroke-opacity:1"
         id="circle843"
         sodipodi:type="arc"
         sodipodi:cx="52.412094"
         sodipodi:cy="19.935289"
         sodipodi:rx="5.5492172"
         sodipodi:ry="5.6985111"
         sodipodi:start="0"
         sodipodi:end="6.2704474"
         sodipodi:arc-type="arc"
         sodipodi:open="true"
         d="m 57.961311,19.935289 a 5.5492172,5.6985111 0 0 1 -5.531546,5.698483 5.5492172,5.6985111 0 0 1 -5.566776,-5.662189 5.5492172,5.6985111 0 0 1 5.496092,-5.734545 5.5492172,5.6985111 0 0 1 5.60178,5.625666" />
      <circle
         style="fill:#585858;fill-opacity:0.855906;stroke:#000000;stroke-width:0.145156;stroke-miterlimit:4;stroke-dasharray:none;stroke-opacity:1"
         id="circle845"
         sodipodi:type="arc"
         sodipodi:cx="68.544243"
         sodipodi:cy="41.827255"
         sodipodi:rx="5.6345921"
         sodipodi:ry="3.0722356"
         sodipodi:start="0"
         sodipodi:end="6.2704474"
         sodipodi:arc-type="arc"
         sodipodi:open="true"
         transform="matrix(0.98484819,-0.17341867,0,1,0,0)"
         d="m 74.178835,41.827255 a 5.6345921,3.0722356 0 0 1 -5.616649,3.07222 5.6345921,3.0722356 0 0 1 -5.652421,-3.052653 5.6345921,3.0722356 0 0 1 5.580649,-3.091662 5.6345921,3.0722356 0 0 1 5.687964,3.032962" />
    </g>
    <g
       id="g918"
       transform="matrix(0.32331673,0,0,0.36778466,-13.755224,-11.068936)">
      <path
         id="path887"
         style="fill:#8d900e;fill-opacity:1;stroke:#000000;stroke-width:1.96913;stroke-miterlimit:4;stroke-dasharray:none;stroke-opacity:1"
         d="m 190.91211,262.73633 a 61.22995,54.999999 0 0 0 0.57812,0.29492 61.22995,54.999999 0 0 0 0.5918,0.29102 61.22995,54.999999 0 0 0 0.5957,0.28711 61.22995,54.999999 0 0 0 0.59766,0.27929 61.22995,54.999999 0 0 0 0.60156,0.27539 61.22995,54.999999 0 0 0 0.60547,0.26758 61.22995,54.999999 0 0 0 0.60742,0.26367 61.22995,54.999999 0 0 0 0.61133,0.25586 61.22995,54.999999 0 0 0 0.61524,0.25 61.22995,54.999999 0 0 0 0.61718,0.24414 61.22995,54.999999 0 0 0 0.6211,0.23828 61.22995,54.999999 0 0 0 0.62304,0.23243 61.22995,54.999999 0 0 0 0.62696,0.22656 61.22995,54.999999 0 0 0 0.6289,0.21875 61.22995,54.999999 0 0 0 0.63282,0.21289 61.22995,54.999999 0 0 0 0.63281,0.20703 61.22995,54.999999 0 0 0 0.63672,0.20117 61.22995,54.999999 0 0 0 0.64062,0.19531 61.22995,54.999999 0 0 0 0.64063,0.1875 61.22995,54.999999 0 0 0 0.64453,0.18165 61.22995,54.999999 0 0 0 0.64648,0.17578 61.22995,54.999999 0 0 0 0.64844,0.16796 61.22995,54.999999 0 0 0 0.64844,0.16407 61.22995,54.999999 0 0 0 0.65234,0.15625 61.22995,54.999999 0 0 0 0.6543,0.14844 61.22995,54.999999 0 0 0 0.65625,0.14453 61.22995,54.999999 0 0 0 0.6582,0.13671 61.22995,54.999999 0 0 0 0.65821,0.12891 61.22995,54.999999 0 0 0 0.66015,0.12305 61.22995,54.999999 0 0 0 0.66406,0.11719 61.22995,54.999999 0 0 0 0.66211,0.11132 61.22995,54.999999 0 0 0 0.66602,0.10352 61.22995,54.999999 0 0 0 0.66601,0.0977 61.22995,54.999999 0 0 0 0.66602,0.0898 61.22995,54.999999 0 0 0 0.66992,0.084 61.22995,54.999999 0 0 0 0.66797,0.0781 61.22995,54.999999 0 0 0 0.67188,0.0703 61.22995,54.999999 0 0 0 0.66992,0.0645 61.22995,54.999999 0 0 0 0.67187,0.0586 61.22995,54.999999 0 0 0 0.67383,0.0508 61.22995,54.999999 0 0 0 0.67188,0.043 61.22995,54.999999 0 0 0 0.67382,0.0391 61.22995,54.999999 0 0 0 0.67383,0.0312 61.22995,54.999999 0 0 0 0.67383,0.0234 61.22995,54.999999 0 0 0 0.67578,0.0176 61.22995,54.999999 0 0 0 0.67383,0.01 61.22995,54.999999 0 0 0 0.67578,0.006 61.22995,54.999999 0 0 0 0.67383,-0.004 61.22995,54.999999 0 0 0 0.67578,-0.008 61.22995,54.999999 0 0 0 0.32422,-0.008 61.22995,54.999999 0 0 0 0.67383,-0.0195 61.22995,54.999999 0 0 0 0.67578,-0.0254 61.22995,54.999999 0 0 0 0.67383,-0.0312 61.22995,54.999999 0 0 0 0.67382,-0.0391 61.22995,54.999999 0 0 0 0.67188,-0.0469 61.22995,54.999999 0 0 0 0.67187,-0.0527 61.22995,54.999999 0 0 0 0.67188,-0.0586 61.22995,54.999999 0 0 0 0.67187,-0.0664 61.22995,54.999999 0 0 0 0.66993,-0.0723 61.22995,54.999999 0 0 0 0.66797,-0.0781 61.22995,54.999999 0 0 0 0.66992,-0.0859 61.22995,54.999999 0 0 0 0.66601,-0.0918 61.22995,54.999999 0 0 0 0.66602,-0.0996 61.22995,54.999999 0 0 0 0.66406,-0.10547 61.22995,54.999999 0 0 0 0.66406,-0.11132 61.22995,54.999999 0 0 0 0.66211,-0.11915 61.22995,54.999999 0 0 0 0.66016,-0.125 61.22995,54.999999 0 0 0 0.6582,-0.13085 61.22995,54.999999 0 0 0 0.6582,-0.13868 61.22995,54.999999 0 0 0 0.6543,-0.14453 61.22995,54.999999 0 0 0 0.6543,-0.15039 61.22995,54.999999 0 0 0 0.65234,-0.1582 61.22995,54.999999 0 0 0 0.64844,-0.16406 61.22995,54.999999 0 0 0 0.64844,-0.16993 61.22995,54.999999 0 0 0 0.64453,-0.17773 61.22995,54.999999 0 0 0 0.64453,-0.18164 61.22995,54.999999 0 0 0 0.64062,-0.19141 61.22995,54.999999 0 0 0 0.63868,-0.19531 61.22995,54.999999 0 0 0 0.63672,-0.20117 61.22995,54.999999 0 0 0 0.63281,-0.20899 61.22995,54.999999 0 0 0 0.63086,-0.21484 61.22995,54.999999 0 0 0 0.6289,-0.2207 61.22995,54.999999 0 0 0 0.62696,-0.22852 61.22995,54.999999 0 0 0 0.62304,-0.23242 61.22995,54.999999 0 0 0 0.61914,-0.24024 61.22995,54.999999 0 0 0 0.61719,-0.24609 61.22995,54.999999 0 0 0 0.61328,-0.25 61.22995,54.999999 0 0 0 0.61133,-0.25781 61.22995,54.999999 0 0 0 0.60742,-0.26563 61.22995,54.999999 0 0 0 0.60547,-0.26953 61.22995,54.999999 0 0 0 0.59961,-0.27539 61.22995,54.999999 0 0 0 0.59766,-0.28125 61.22995,54.999999 0 0 0 0.59375,-0.28906 61.22995,54.999999 0 0 0 0.59179,-0.29297 61.22995,54.999999 0 0 0 0.58594,-0.29883 61.22995,54.999999 0 0 0 0.58399,-0.30468 61.22995,54.999999 0 0 0 0.57812,-0.3125 61.22995,54.999999 0 0 0 0.57617,-0.31641 61.22995,54.999999 0 0 0 0.57227,-0.32227 61.22995,54.999999 0 0 0 0.5664,-0.32812 61.22995,54.999999 0 0 0 0.56446,-0.33203 61.22995,54.999999 0 0 0 0.55859,-0.33985 61.22995,54.999999 0 0 0 0.55664,-0.34375 61.22995,54.999999 0 0 0 0.55078,-0.35156 61.22995,54.999999 0 0 0 0.54688,-0.35547 61.22995,54.999999 0 0 0 0.54101,-0.35937 61.22995,54.999999 0 0 0 0.53907,-0.36719 61.22995,54.999999 0 0 0 0.5332,-0.37109 61.22995,54.999999 0 0 0 0.52734,-0.37696 61.22995,54.999999 0 0 0 0.52539,-0.38281 61.22995,54.999999 0 0 0 0.51954,-0.38672 61.22995,54.999999 0 0 0 0.51367,-0.39258 61.22995,54.999999 0 0 0 0.50976,-0.39648 61.22995,54.999999 0 0 0 0.50586,-0.40234 61.22995,54.999999 0 0 0 0.49805,-0.40821 61.22995,54.999999 0 0 0 0.49609,-0.41211 61.22995,54.999999 0 0 0 0.48828,-0.41797 61.22995,54.999999 0 0 0 0.48633,-0.42187 61.22995,54.999999 0 0 0 0.47852,-0.42578 61.22995,54.999999 0 0 0 0.47461,-0.43164 61.22995,54.999999 0 0 0 0.46875,-0.4375 61.22995,54.999999 0 0 0 0.46289,-0.43946 61.22995,54.999999 0 0 0 0.45703,-0.44531 61.22995,54.999999 0 0 0 0.45312,-0.45117 61.22995,54.999999 0 0 0 0.44727,-0.45313 61.22995,54.999999 0 0 0 0.44141,-0.45898 61.22995,54.999999 0 0 0 0.43554,-0.46289 61.22995,54.999999 0 0 0 0.42969,-0.4668 61.22995,54.999999 0 0 0 0.42383,-0.47265 61.22995,54.999999 0 0 0 0.41797,-0.47461 61.22995,54.999999 0 0 0 0.41211,-0.48047 61.22995,54.999999 0 0 0 0.4082,-0.48438 61.22995,54.999999 0 0 0 0.40039,-0.48828 61.22995,54.999999 0 0 0 0.39453,-0.49219 61.22995,54.999999 0 0 0 0.38867,-0.49414 61.22995,54.999999 0 0 0 0.38282,-0.5 61.22995,54.999999 0 0 0 0.375,-0.5039 61.22995,54.999999 0 0 0 0.37109,-0.50586 61.22995,54.999999 0 0 0 0.36328,-0.51172 61.22995,54.999999 0 0 0 0.35742,-0.51367 61.22995,54.999999 0 0 0 0.35157,-0.51758 61.22995,54.999999 0 0 0 0.34375,-0.52149 61.22995,54.999999 0 0 0 0.33984,-0.52343 61.22995,54.999999 0 0 0 0.33203,-0.5293 61.22995,54.999999 0 0 0 0.32422,-0.53125 61.22995,54.999999 0 0 0 0.32031,-0.5332 61.22995,54.999999 0 0 0 0.31055,-0.53711 61.22995,54.999999 0 0 0 0.30664,-0.54102 61.22995,54.999999 0 0 0 0.29883,-0.54297 61.22995,54.999999 0 0 0 0.29297,-0.54687 61.22995,54.999999 0 0 0 0.28515,-0.54883 61.22995,54.999999 0 0 0 0.2793,-0.55273 61.22995,54.999999 0 0 0 0.27148,-0.55469 61.22995,54.999999 0 0 0 0.26563,-0.55664 61.22995,54.999999 0 0 0 0.25781,-0.56055 61.22995,54.999999 0 0 0 0.25195,-0.5625 61.22995,54.999999 0 0 0 0.2461,-0.56445 61.22995,54.999999 0 0 0 0.23633,-0.56836 61.22995,54.999999 0 0 0 0.23046,-0.57031 61.22995,54.999999 0 0 0 0.22461,-0.57032 61.22995,54.999999 0 0 0 0.2168,-0.57421 61.22995,54.999999 0 0 0 0.20899,-0.57813 61.22995,54.999999 0 0 0 0.20312,-0.57813 61.22995,54.999999 0 0 0 0.19531,-0.58007 61.22995,54.999999 0 0 0 0.1875,-0.58203 61.22995,54.999999 0 0 0 0.18164,-0.58399 61.22995,54.999999 0 0 0 0.17383,-0.58594 61.22995,54.999999 0 0 0 0.16797,-0.58593 61.22995,54.999999 0 0 0 0.1582,-0.58985 61.22995,54.999999 0 0 0 0.15235,-0.58984 61.22995,54.999999 0 0 0 0.14453,-0.59375 61.22995,54.999999 0 0 0 0.13867,-0.5918 61.22995,54.999999 0 0 0 0.13086,-0.5957 61.22995,54.999999 0 0 0 0.12305,-0.5957 61.22995,54.999999 0 0 0 0.11523,-0.59766 61.22995,54.999999 0 0 0 0.10938,-0.59766 61.22995,54.999999 0 0 0 0.10156,-0.59961 61.22995,54.999999 0 0 0 0.0937,-0.60156 61.22995,54.999999 0 0 0 0.0859,-0.59961 61.22995,54.999999 0 0 0 0.0781,-0.60351 61.22995,54.999999 0 0 0 0.0723,-0.60157 61.22995,54.999999 0 0 0 0.0645,-0.60351 61.22995,54.999999 0 0 0 0.0566,-0.60547 61.22995,54.999999 0 0 0 0.0488,-0.60352 61.22995,54.999999 0 0 0 0.043,-0.60546 61.22995,54.999999 0 0 0 0.0351,-0.60547 61.22995,54.999999 0 0 0 0.0274,-0.60547 61.22995,54.999999 0 0 0 0.0195,-0.60547 61.22995,54.999999 0 0 0 0.0117,-0.60742 61.22995,54.999999 0 0 0 0.004,-0.60547 61.22995,54.999999 0 0 0 -0.002,-0.60547 61.22995,54.999999 0 0 0 -0.01,-0.60742 61.22995,54.999999 0 0 0 -0.008,-0.29102 61.22995,54.999999 0 0 0 -0.0215,-0.60547 61.22995,54.999999 0 0 0 -0.0274,-0.60547 61.22995,54.999999 0 0 0 -0.0371,-0.60546 61.22995,54.999999 0 0 0 -0.043,-0.60547 61.22995,54.999999 0 0 0 -0.0508,-0.60547 61.22995,54.999999 0 0 0 -0.0586,-0.60352 61.22995,54.999999 0 0 0 -0.0644,-0.60351 61.22995,54.999999 0 0 0 -0.0723,-0.60157 61.22995,54.999999 0 0 0 -0.082,-0.60351 61.22995,54.999999 0 0 0 -0.0879,-0.59961 61.22995,54.999999 0 0 0 -0.0937,-0.60156 61.22995,54.999999 0 0 0 -0.10352,-0.59766 61.22995,54.999999 0 0 0 -0.10937,-0.59961 61.22995,54.999999 0 0 0 -0.11719,-0.5957 61.22995,54.999999 0 0 0 -0.125,-0.5957 61.22995,54.999999 0 0 0 -0.13086,-0.59571 61.22995,54.999999 0 0 0 -0.13867,-0.59375 61.22995,54.999999 0 0 0 -0.14648,-0.5918 61.22995,54.999999 0 0 0 -0.1543,-0.58984 61.22995,54.999999 0 0 0 -0.16016,-0.58789 61.22995,54.999999 0 0 0 -0.16797,-0.58789 61.22995,54.999999 0 0 0 -0.17578,-0.58594 61.22995,54.999999 0 0 0 -0.18164,-0.58203 61.22995,54.999999 0 0 0 -0.18945,-0.58203 61.22995,54.999999 0 0 0 -0.19727,-0.58008 61.22995,54.999999 0 0 0 -0.20312,-0.57812 61.22995,54.999999 0 0 0 -0.21094,-0.57618 61.22995,54.999999 0 0 0 -0.21875,-0.57421 61.22995,54.999999 0 0 0 -0.22461,-0.57227 61.22995,54.999999 0 0 0 -0.23242,-0.56836 61.22995,54.999999 0 0 0 -0.23828,-0.5664 61.22995,54.999999 0 0 0 -0.24609,-0.56446 61.22995,54.999999 0 0 0 -0.25391,-0.5625 61.22995,54.999999 0 0 0 -0.25977,-0.56054 61.22995,54.999999 0 0 0 -0.26562,-0.55665 61.22995,54.999999 0 0 0 -0.27344,-0.55468 61.22995,54.999999 0 0 0 -0.2793,-0.55078 61.22995,54.999999 0 0 0 -0.28711,-0.54883 61.22995,54.999999 0 0 0 -0.29492,-0.54492 61.22995,54.999999 0 0 0 -0.29882,-0.54297 61.22995,54.999999 0 0 0 -0.30665,-0.54102 61.22995,54.999999 0 0 0 -0.31445,-0.53711 61.22995,54.999999 0 0 0 -0.32031,-0.5332 61.22995,54.999999 0 0 0 -0.32617,-0.53125 61.22995,54.999999 0 0 0 -0.33399,-0.52735 61.22995,54.999999 0 0 0 -0.33984,-0.52343 61.22995,54.999999 0 0 0 -0.3457,-0.51953 61.22995,54.999999 0 0 0 -0.35157,-0.51758 61.22995,54.999999 0 0 0 -0.35937,-0.51367 61.22995,54.999999 0 0 0 -0.36524,-0.50977 61.22995,54.999999 0 0 0 -0.37109,-0.50586 61.22995,54.999999 0 0 0 -0.37695,-0.5039 61.22995,54.999999 0 0 0 -0.38282,-0.49805 61.22995,54.999999 0 0 0 -0.39062,-0.4961 61.22995,54.999999 0 0 0 -0.39453,-0.49023 61.22995,54.999999 0 0 0 -0.40235,-0.48828 61.22995,54.999999 0 0 0 -0.4082,-0.48242 61.22995,54.999999 0 0 0 -0.41211,-0.47852 61.22995,54.999999 0 0 0 -0.41992,-0.47461 61.22995,54.999999 0 0 0 -0.42578,-0.47265 61.22995,54.999999 0 0 0 -0.42969,-0.46485 61.22995,54.999999 0 0 0 -0.4375,-0.46289 61.22995,54.999999 0 0 0 -0.44141,-0.45898 61.22995,54.999999 0 0 0 -0.44921,-0.45313 61.22995,54.999999 0 0 0 -0.45313,-0.44922 61.22995,54.999999 0 0 0 -0.45898,-0.44336 61.22995,54.999999 0 0 0 -0.46289,-0.4414 61.22995,54.999999 0 0 0 -0.47071,-0.43555 61.22995,54.999999 0 0 0 -0.47461,-0.42969 61.22995,54.999999 0 0 0 -0.27734,-0.24609 210,180 0 0 0 -73.36914,86.91797 z"
         transform="scale(0.26458333)" />
      <path
         id="path893"
         style="fill:#b4ba12;fill-opacity:1;stroke:#000000;stroke-width:1.96913;stroke-miterlimit:4;stroke-dasharray:none;stroke-opacity:1"
         d="m 368.57812,140.93945 a 210,180 0 0 0 -104.29687,34.87891 61.229946,54.999995 0 0 1 0.27734,0.24609 61.229946,54.999995 0 0 1 0.47461,0.42969 61.229946,54.999995 0 0 1 0.47071,0.43555 61.229946,54.999995 0 0 1 0.46289,0.4414 61.229946,54.999995 0 0 1 0.45898,0.44336 61.229946,54.999995 0 0 1 0.45313,0.44922 61.229946,54.999995 0 0 1 0.44921,0.45313 61.229946,54.999995 0 0 1 0.44141,0.45898 61.229946,54.999995 0 0 1 0.4375,0.46289 61.229946,54.999995 0 0 1 0.42969,0.46485 61.229946,54.999995 0 0 1 0.42578,0.47265 61.229946,54.999995 0 0 1 0.41992,0.47461 61.229946,54.999995 0 0 1 0.41211,0.47852 61.229946,54.999995 0 0 1 0.4082,0.48242 61.229946,54.999995 0 0 1 0.40235,0.48828 61.229946,54.999995 0 0 1 0.39453,0.49023 61.229946,54.999995 0 0 1 0.39062,0.4961 61.229946,54.999995 0 0 1 0.38282,0.49805 61.229946,54.999995 0 0 1 0.37695,0.5039 61.229946,54.999995 0 0 1 0.37109,0.50586 61.229946,54.999995 0 0 1 0.36524,0.50977 61.229946,54.999995 0 0 1 0.35937,0.51367 61.229946,54.999995 0 0 1 0.35157,0.51758 61.229946,54.999995 0 0 1 0.3457,0.51953 61.229946,54.999995 0 0 1 0.33984,0.52343 61.229946,54.999995 0 0 1 0.33399,0.52735 61.229946,54.999995 0 0 1 0.32617,0.53125 61.229946,54.999995 0 0 1 0.32031,0.5332 61.229946,54.999995 0 0 1 0.31445,0.53711 61.229946,54.999995 0 0 1 0.30665,0.54102 61.229946,54.999995 0 0 1 0.29882,0.54297 61.229946,54.999995 0 0 1 0.29492,0.54492 61.229946,54.999995 0 0 1 0.28711,0.54883 61.229946,54.999995 0 0 1 0.2793,0.55078 61.229946,54.999995 0 0 1 0.27344,0.55468 61.229946,54.999995 0 0 1 0.26562,0.55665 61.229946,54.999995 0 0 1 0.25977,0.56054 61.229946,54.999995 0 0 1 0.25391,0.5625 61.229946,54.999995 0 0 1 0.24609,0.56446 61.229946,54.999995 0 0 1 0.23828,0.5664 61.229946,54.999995 0 0 1 0.23242,0.56836 61.229946,54.999995 0 0 1 0.22461,0.57227 61.229946,54.999995 0 0 1 0.21875,0.57421 61.229946,54.999995 0 0 1 0.21094,0.57618 61.229946,54.999995 0 0 1 0.20312,0.57812 61.229946,54.999995 0 0 1 0.19727,0.58008 61.229946,54.999995 0 0 1 0.18945,0.58203 61.229946,54.999995 0 0 1 0.18164,0.58203 61.229946,54.999995 0 0 1 0.17578,0.58594 61.229946,54.999995 0 0 1 0.16797,0.58789 61.229946,54.999995 0 0 1 0.16016,0.58789 61.229946,54.999995 0 0 1 0.1543,0.58984 61.229946,54.999995 0 0 1 0.14648,0.5918 61.229946,54.999995 0 0 1 0.13867,0.59375 61.229946,54.999995 0 0 1 0.13086,0.59571 61.229946,54.999995 0 0 1 0.125,0.5957 61.229946,54.999995 0 0 1 0.11719,0.5957 61.229946,54.999995 0 0 1 0.10937,0.59961 61.229946,54.999995 0 0 1 0.10352,0.59766 61.229946,54.999995 0 0 1 0.0937,0.60156 61.229946,54.999995 0 0 1 0.0879,0.59961 61.229946,54.999995 0 0 1 0.082,0.60351 61.229946,54.999995 0 0 1 0.0723,0.60157 61.229946,54.999995 0 0 1 0.0644,0.60351 61.229946,54.999995 0 0 1 0.0586,0.60352 61.229946,54.999995 0 0 1 0.0508,0.60547 61.229946,54.999995 0 0 1 0.043,0.60547 61.229946,54.999995 0 0 1 0.0371,0.60546 61.229946,54.999995 0 0 1 0.0274,0.60547 61.229946,54.999995 0 0 1 0.0215,0.60547 61.229946,54.999995 0 0 1 0.008,0.29102 61.229946,54.999995 0 0 1 0.01,0.60742 61.229946,54.999995 0 0 1 0.002,0.60547 61.229946,54.999995 0 0 1 -0.004,0.60547 61.229946,54.999995 0 0 1 -0.0117,0.60742 61.229946,54.999995 0 0 1 -0.0195,0.60547 61.229946,54.999995 0 0 1 -0.0274,0.60547 61.229946,54.999995 0 0 1 -0.0351,0.60547 61.229946,54.999995 0 0 1 -0.043,0.60546 61.229946,54.999995 0 0 1 -0.0488,0.60352 61.229946,54.999995 0 0 1 -0.0566,0.60547 61.229946,54.999995 0 0 1 -0.0645,0.60351 61.229946,54.999995 0 0 1 -0.0723,0.60157 61.229946,54.999995 0 0 1 -0.0781,0.60351 61.229946,54.999995 0 0 1 -0.0859,0.59961 61.229946,54.999995 0 0 1 -0.0937,0.60156 61.229946,54.999995 0 0 1 -0.10156,0.59961 61.229946,54.999995 0 0 1 -0.10938,0.59766 61.229946,54.999995 0 0 1 -0.11523,0.59766 61.229946,54.999995 0 0 1 -0.12305,0.5957 61.229946,54.999995 0 0 1 -0.13086,0.5957 61.229946,54.999995 0 0 1 -0.13867,0.5918 61.229946,54.999995 0 0 1 -0.14453,0.59375 61.229946,54.999995 0 0 1 -0.15235,0.58984 61.229946,54.999995 0 0 1 -0.1582,0.58985 61.229946,54.999995 0 0 1 -0.16797,0.58593 61.229946,54.999995 0 0 1 -0.17383,0.58594 61.229946,54.999995 0 0 1 -0.18164,0.58399 61.229946,54.999995 0 0 1 -0.1875,0.58203 61.229946,54.999995 0 0 1 -0.19531,0.58007 61.229946,54.999995 0 0 1 -0.20312,0.57813 61.229946,54.999995 0 0 1 -0.20899,0.57813 61.229946,54.999995 0 0 1 -0.2168,0.57421 61.229946,54.999995 0 0 1 -0.22461,0.57032 61.229946,54.999995 0 0 1 -0.23046,0.57031 61.229946,54.999995 0 0 1 -0.23633,0.56836 61.229946,54.999995 0 0 1 -0.2461,0.56445 61.229946,54.999995 0 0 1 -0.25195,0.5625 61.229946,54.999995 0 0 1 -0.25781,0.56055 61.229946,54.999995 0 0 1 -0.26563,0.55664 61.229946,54.999995 0 0 1 -0.27148,0.55469 61.229946,54.999995 0 0 1 -0.2793,0.55273 61.229946,54.999995 0 0 1 -0.28515,0.54883 61.229946,54.999995 0 0 1 -0.29297,0.54687 61.229946,54.999995 0 0 1 -0.29883,0.54297 61.229946,54.999995 0 0 1 -0.30664,0.54102 61.229946,54.999995 0 0 1 -0.31055,0.53711 61.229946,54.999995 0 0 1 -0.32031,0.5332 61.229946,54.999995 0 0 1 -0.32422,0.53125 61.229946,54.999995 0 0 1 -0.33203,0.5293 61.229946,54.999995 0 0 1 -0.33984,0.52343 61.229946,54.999995 0 0 1 -0.34375,0.52149 61.229946,54.999995 0 0 1 -0.35157,0.51758 61.229946,54.999995 0 0 1 -0.35742,0.51367 61.229946,54.999995 0 0 1 -0.36328,0.51172 61.229946,54.999995 0 0 1 -0.37109,0.50586 61.229946,54.999995 0 0 1 -0.375,0.5039 61.229946,54.999995 0 0 1 -0.38282,0.5 61.229946,54.999995 0 0 1 -0.38867,0.49414 61.229946,54.999995 0 0 1 -0.39453,0.49219 61.229946,54.999995 0 0 1 -0.40039,0.48828 61.229946,54.999995 0 0 1 -0.4082,0.48438 61.229946,54.999995 0 0 1 -0.41211,0.48047 61.229946,54.999995 0 0 1 -0.41797,0.47461 61.229946,54.999995 0 0 1 -0.42383,0.47265 61.229946,54.999995 0 0 1 -0.42969,0.4668 61.229946,54.999995 0 0 1 -0.43554,0.46289 61.229946,54.999995 0 0 1 -0.44141,0.45898 61.229946,54.999995 0 0 1 -0.44727,0.45313 61.229946,54.999995 0 0 1 -0.45312,0.45117 61.229946,54.999995 0 0 1 -0.45703,0.44531 61.229946,54.999995 0 0 1 -0.46289,0.43946 61.229946,54.999995 0 0 1 -0.46875,0.4375 61.229946,54.999995 0 0 1 -0.47461,0.43164 61.229946,54.999995 0 0 1 -0.47852,0.42578 61.229946,54.999995 0 0 1 -0.48633,0.42187 61.229946,54.999995 0 0 1 -0.48828,0.41797 61.229946,54.999995 0 0 1 -0.49609,0.41211 61.229946,54.999995 0 0 1 -0.49805,0.40821 61.229946,54.999995 0 0 1 -0.50586,0.40234 61.229946,54.999995 0 0 1 -0.50976,0.39648 61.229946,54.999995 0 0 1 -0.51367,0.39258 61.229946,54.999995 0 0 1 -0.51954,0.38672 61.229946,54.999995 0 0 1 -0.52539,0.38281 61.229946,54.999995 0 0 1 -0.52734,0.37696 61.229946,54.999995 0 0 1 -0.5332,0.37109 61.229946,54.999995 0 0 1 -0.53907,0.36719 61.229946,54.999995 0 0 1 -0.54101,0.35937 61.229946,54.999995 0 0 1 -0.54688,0.35547 61.229946,54.999995 0 0 1 -0.55078,0.35156 61.229946,54.999995 0 0 1 -0.55664,0.34375 61.229946,54.999995 0 0 1 -0.55859,0.33985 61.229946,54.999995 0 0 1 -0.56446,0.33203 61.229946,54.999995 0 0 1 -0.5664,0.32812 61.229946,54.999995 0 0 1 -0.57227,0.32227 61.229946,54.999995 0 0 1 -0.57617,0.31641 61.229946,54.999995 0 0 1 -0.57812,0.3125 61.229946,54.999995 0 0 1 -0.58399,0.30468 61.229946,54.999995 0 0 1 -0.58594,0.29883 61.229946,54.999995 0 0 1 -0.59179,0.29297 61.229946,54.999995 0 0 1 -0.59375,0.28906 61.229946,54.999995 0 0 1 -0.59766,0.28125 61.229946,54.999995 0 0 1 -0.59961,0.27539 61.229946,54.999995 0 0 1 -0.60547,0.26953 61.229946,54.999995 0 0 1 -0.60742,0.26563 61.229946,54.999995 0 0 1 -0.61133,0.25781 61.229946,54.999995 0 0 1 -0.61328,0.25 61.229946,54.999995 0 0 1 -0.61719,0.24609 61.229946,54.999995 0 0 1 -0.61914,0.24024 61.229946,54.999995 0 0 1 -0.62304,0.23242 61.229946,54.999995 0 0 1 -0.62696,0.22852 61.229946,54.999995 0 0 1 -0.6289,0.2207 61.229946,54.999995 0 0 1 -0.63086,0.21484 61.229946,54.999995 0 0 1 -0.63281,0.20899 61.229946,54.999995 0 0 1 -0.63672,0.20117 61.229946,54.999995 0 0 1 -0.63868,0.19531 61.229946,54.999995 0 0 1 -0.64062,0.19141 61.229946,54.999995 0 0 1 -0.64453,0.18164 61.229946,54.999995 0 0 1 -0.64453,0.17773 61.229946,54.999995 0 0 1 -0.64844,0.16993 61.229946,54.999995 0 0 1 -0.64844,0.16406 61.229946,54.999995 0 0 1 -0.65234,0.1582 61.229946,54.999995 0 0 1 -0.6543,0.15039 61.229946,54.999995 0 0 1 -0.6543,0.14453 61.229946,54.999995 0 0 1 -0.6582,0.13868 61.229946,54.999995 0 0 1 -0.6582,0.13085 61.229946,54.999995 0 0 1 -0.66016,0.125 61.229946,54.999995 0 0 1 -0.66211,0.11915 61.229946,54.999995 0 0 1 -0.66406,0.11132 61.229946,54.999995 0 0 1 -0.66406,0.10547 61.229946,54.999995 0 0 1 -0.66602,0.0996 61.229946,54.999995 0 0 1 -0.66601,0.0918 61.229946,54.999995 0 0 1 -0.66992,0.0859 61.229946,54.999995 0 0 1 -0.66797,0.0781 61.229946,54.999995 0 0 1 -0.66993,0.0723 61.229946,54.999995 0 0 1 -0.67187,0.0664 61.229946,54.999995 0 0 1 -0.67188,0.0586 61.229946,54.999995 0 0 1 -0.67187,0.0527 61.229946,54.999995 0 0 1 -0.67188,0.0469 61.229946,54.999995 0 0 1 -0.67382,0.0391 61.229946,54.999995 0 0 1 -0.67383,0.0312 61.229946,54.999995 0 0 1 -0.67578,0.0254 61.229946,54.999995 0 0 1 -0.67383,0.0195 61.229946,54.999995 0 0 1 -0.32422,0.008 61.229946,54.999995 0 0 1 -0.67578,0.008 61.229946,54.999995 0 0 1 -0.67383,0.004 61.229946,54.999995 0 0 1 -0.67578,-0.006 61.229946,54.999995 0 0 1 -0.67383,-0.01 61.229946,54.999995 0 0 1 -0.67578,-0.0176 61.229946,54.999995 0 0 1 -0.67383,-0.0234 61.229946,54.999995 0 0 1 -0.67383,-0.0312 61.229946,54.999995 0 0 1 -0.67382,-0.0391 61.229946,54.999995 0 0 1 -0.67188,-0.043 61.229946,54.999995 0 0 1 -0.67383,-0.0508 61.229946,54.999995 0 0 1 -0.67187,-0.0586 61.229946,54.999995 0 0 1 -0.66992,-0.0645 61.229946,54.999995 0 0 1 -0.67188,-0.0703 61.229946,54.999995 0 0 1 -0.66797,-0.0781 61.229946,54.999995 0 0 1 -0.66992,-0.084 61.229946,54.999995 0 0 1 -0.66602,-0.0898 61.229946,54.999995 0 0 1 -0.66601,-0.0977 61.229946,54.999995 0 0 1 -0.66602,-0.10352 61.229946,54.999995 0 0 1 -0.66211,-0.11132 61.229946,54.999995 0 0 1 -0.66406,-0.11719 61.229946,54.999995 0 0 1 -0.66015,-0.12305 61.229946,54.999995 0 0 1 -0.65821,-0.12891 61.229946,54.999995 0 0 1 -0.6582,-0.13671 61.229946,54.999995 0 0 1 -0.65625,-0.14453 61.229946,54.999995 0 0 1 -0.6543,-0.14844 61.229946,54.999995 0 0 1 -0.65234,-0.15625 61.229946,54.999995 0 0 1 -0.64844,-0.16407 61.229946,54.999995 0 0 1 -0.64844,-0.16796 61.229946,54.999995 0 0 1 -0.64648,-0.17578 61.229946,54.999995 0 0 1 -0.64453,-0.18165 61.229946,54.999995 0 0 1 -0.64063,-0.1875 61.229946,54.999995 0 0 1 -0.64062,-0.19531 61.229946,54.999995 0 0 1 -0.63672,-0.20117 61.229946,54.999995 0 0 1 -0.63281,-0.20703 61.229946,54.999995 0 0 1 -0.63282,-0.21289 61.229946,54.999995 0 0 1 -0.6289,-0.21875 61.229946,54.999995 0 0 1 -0.62696,-0.22656 61.229946,54.999995 0 0 1 -0.62304,-0.23243 61.229946,54.999995 0 0 1 -0.6211,-0.23828 61.229946,54.999995 0 0 1 -0.61718,-0.24414 61.229946,54.999995 0 0 1 -0.61524,-0.25 61.229946,54.999995 0 0 1 -0.61133,-0.25586 61.229946,54.999995 0 0 1 -0.60742,-0.26367 61.229946,54.999995 0 0 1 -0.60547,-0.26758 61.229946,54.999995 0 0 1 -0.60156,-0.27539 61.229946,54.999995 0 0 1 -0.59766,-0.27929 61.229946,54.999995 0 0 1 -0.5957,-0.28711 61.229946,54.999995 0 0 1 -0.5918,-0.29102 61.229946,54.999995 0 0 1 -0.57812,-0.29492 210,180 0 0 0 -10.86523,61.02929 210,180 0 0 0 44.01953,106.55469 A 45.433266,28.013489 0 0 1 230,430 h 0.0508 a 45.433266,28.013489 0 0 1 46.33594,27.4375 45.433266,28.013489 0 0 1 -3.80078,11.79688 210,180 0 0 0 121.75,30.72656 210,180 0 0 0 45.76758,-5.16016 A 107.71598,110.01237 0 0 1 434.5918,462.28906 107.71598,110.01237 0 0 1 540,350 l 0.12109,-0.002 a 107.71598,110.01237 0 0 1 53.6875,13.38086 210,180 0 0 0 6.14844,-47.04493 210,180 0 0 0 -31.9375,-91.8164 45.381465,27.834855 0 0 1 -32.47851,-26.10547 45.381465,27.834855 0 0 1 1.25976,-7.125 210,180 0 0 0 -94.52539,-45.62109 55.303437,24.999999 0 0 1 -29.96094,4.32226 55.303437,24.999999 0 0 1 -43.73633,-9.04883 z"
         transform="scale(0.26458333)" />
      <circle
         style="fill:#929a0e;fill-opacity:0.670633;stroke:#000000;stroke-width:0.656838;stroke-miterlimit:4;stroke-dasharray:none;stroke-opacity:1"
         id="path909"
         sodipodi:type="arc"
         sodipodi:cx="64.170433"
         sodipodi:cy="120.87233"
         sodipodi:rx="18.922071"
         sodipodi:ry="11.907588"
         sodipodi:start="4.6923002"
         sodipodi:end="4.6911832"
         sodipodi:open="true"
         sodipodi:arc-type="arc"
         d="M 63.790337,108.96714 A 18.922071,11.907588 0 0 1 83.08858,120.62981 18.922071,11.907588 0 0 1 64.561095,132.77738 18.922071,11.907588 0 0 1 45.252505,121.1215 18.922071,11.907588 0 0 1 63.769206,108.96742"
         transform="matrix(0.89366982,-0.44872515,0.44807852,0.89399421,0,0)" />
    </g>
    <g
       id="g939"
       transform="matrix(0.33213756,0,0,0.35168378,-29.499738,-9.444982)">
      <path
         id="circle889"
         style="fill:#9a150e;fill-opacity:1;stroke:#000000;stroke-width:1.96913;stroke-miterlimit:4;stroke-dasharray:none;stroke-opacity:1"
         d="M 1463.7871,129.96484 A 210,180 0 0 0 1460,130 l -0.2324,0.004 a 210,180 0 0 0 -104.0488,25.8457 89.628919,66.335958 54.282303 0 1 -1.2071,80.57227 89.628919,66.335958 54.282303 0 1 -85.8594,7.96484 210,180 0 0 0 -14.3886,69.3418 210,180 0 0 0 214.289,176.19726 210,180 0 0 0 205.6231,-183.62695 210,180 0 0 0 -210.3887,-176.33399 z"
         transform="scale(0.26458333)" />
      <circle
         style="fill:#8a1e0c;fill-opacity:0.884367;stroke:#000000;stroke-width:0.520999;stroke-miterlimit:4;stroke-dasharray:none;stroke-opacity:1"
         id="path926"
         sodipodi:type="arc"
         sodipodi:cx="217.53642"
         sodipodi:cy="299.29874"
         sodipodi:rx="13.229166"
         sodipodi:ry="10.583333"
         sodipodi:start="4.6923002"
         sodipodi:end="4.6911832"
         sodipodi:open="true"
         sodipodi:arc-type="arc"
         d="m 217.27068,288.71754 a 13.229166,10.583333 0 0 1 13.49216,10.36565 13.229166,10.583333 0 0 1 -12.95329,10.79662 13.229166,10.583333 0 0 1 -13.4994,-10.35962 13.229166,10.583333 0 0 1 12.94576,-10.80241"
         transform="rotate(-39.918672)" />
      <circle
         style="fill:#73190a;fill-opacity:0.670633;stroke:#000000;stroke-width:0.792522;stroke-miterlimit:4;stroke-dasharray:none;stroke-opacity:1"
         id="circle928"
         sodipodi:type="arc"
         sodipodi:cx="263.65234"
         sodipodi:cy="343.233"
         sodipodi:rx="20.086512"
         sodipodi:ry="16.128689"
         sodipodi:start="4.6923002"
         sodipodi:end="4.6911832"
         sodipodi:open="true"
         sodipodi:arc-type="arc"
         d="m 263.24886,327.10757 a 20.086512,16.128689 0 0 1 20.48583,15.79694 20.086512,16.128689 0 0 1 -19.66764,16.45374 20.086512,16.128689 0 0 1 -20.49682,-15.78776 20.086512,16.128689 0 0 1 19.6562,-16.46255"
         transform="matrix(0.76028969,-0.64958417,0.63377609,0.77351656,0,0)" />
      <circle
         style="fill:#6d1809;fill-opacity:0.670633;stroke:#000000;stroke-width:0.409316;stroke-miterlimit:4;stroke-dasharray:none;stroke-opacity:1"
         id="circle930"
         sodipodi:type="arc"
         sodipodi:cx="424.18564"
         sodipodi:cy="452.67111"
         sodipodi:rx="9.846096"
         sodipodi:ry="8.776763"
         sodipodi:start="4.6923002"
         sodipodi:end="4.6911832"
         sodipodi:open="true"
         sodipodi:arc-type="arc"
         d="m 423.98786,443.89612 a 9.846096,8.776763 0 0 1 10.04183,8.59624 9.846096,8.776763 0 0 1 -9.64077,8.95364 9.846096,8.776763 0 0 1 -10.04722,-8.59123 9.846096,8.776763 0 0 1 9.63516,-8.95845"
         transform="matrix(0.5065984,-0.86218215,0.38040377,0.92482051,0,0)" />
    </g>
  </g>
</svg>
