<?xml version="1.0" encoding="UTF-8" standalone="no"?>
<svg
   xmlns:dc="http://purl.org/dc/elements/1.1/"
   xmlns:cc="http://creativecommons.org/ns#"
   xmlns:rdf="http://www.w3.org/1999/02/22-rdf-syntax-ns#"
   xmlns:svg="http://www.w3.org/2000/svg"
   xmlns="http://www.w3.org/2000/svg"
   xmlns:sodipodi="http://sodipodi.sourceforge.net/DTD/sodipodi-0.dtd"
   xmlns:inkscape="http://www.inkscape.org/namespaces/inkscape"
   width="960"
   height="320"
   viewBox="0 0 253.99999 84.666669"
   version="1.1"
   id="svg1818"
   inkscape:version="1.0.2 (1.0.2+r75+1)"
   sodipodi:docname="spaceship_sprite.svg"
   inkscape:export-filename="/home/agoryu/Projects/Space_Attack/asset/Pictures/spaceship2.png"
   inkscape:export-xdpi="96"
   inkscape:export-ydpi="96">
  <defs
     id="defs1812">
    <inkscape:path-effect
       effect="mirror_symmetry"
       start_point="42.333333,0"
       end_point="42.333333,84.666667"
       center_point="42.333333,42.333333"
       id="path-effect869"
       is_visible="true"
       lpeversion="1"
       mode="vertical"
       discard_orig_path="false"
       fuse_paths="false"
       oposite_fuse="false"
       split_items="false" />
    <inkscape:path-effect
       effect="mirror_symmetry"
       start_point="36.320076,-14.552084"
       end_point="36.320076,84.225694"
       center_point="36.320076,34.836805"
       id="path-effect863"
       is_visible="true"
       lpeversion="1"
       mode="vertical"
       discard_orig_path="false"
       fuse_paths="false"
       oposite_fuse="false"
       split_items="false" />
    <inkscape:path-effect
       effect="mirror_symmetry"
       start_point="42.333333,0"
       end_point="42.333333,84.666667"
       center_point="42.333333,42.333333"
       id="path-effect845"
       is_visible="true"
       lpeversion="1"
       mode="vertical"
       discard_orig_path="false"
       fuse_paths="false"
       oposite_fuse="false"
       split_items="false" />
    <inkscape:path-effect
       effect="mirror_symmetry"
       start_point="50,7.9374994"
       end_point="31.15,75.083128"
       center_point="31.749999,41.510314"
       id="path-effect963"
       is_visible="true"
       lpeversion="1"
       mode="vertical"
       discard_orig_path="false"
       fuse_paths="false"
       oposite_fuse="false"
       split_items="false" />
  </defs>
  <sodipodi:namedview
     id="base"
     pagecolor="#ffffff"
     bordercolor="#666666"
     borderopacity="1.0"
     inkscape:pageopacity="0.0"
     inkscape:pageshadow="2"
     inkscape:zoom="2.8"
     inkscape:cx="255.69914"
     inkscape:cy="55.157959"
     inkscape:document-units="px"
     inkscape:current-layer="layer1"
     inkscape:document-rotation="0"
     showgrid="false"
     units="px"
     inkscape:window-width="1920"
     inkscape:window-height="1016"
     inkscape:window-x="0"
     inkscape:window-y="27"
     inkscape:window-maximized="1">
    <inkscape:grid
       type="xygrid"
       id="grid1820"
       spacingx="2.6458333"
       spacingy="2.6458333"
       snapvisiblegridlinesonly="true" />
  </sodipodi:namedview>
  <metadata
     id="metadata1815">
    <rdf:RDF>
      <cc:Work
         rdf:about="">
        <dc:format>image/svg+xml</dc:format>
        <dc:type
           rdf:resource="http://purl.org/dc/dcmitype/StillImage" />
        <dc:title />
      </cc:Work>
    </rdf:RDF>
  </metadata>
  <g
     inkscape:label="Calque 1"
     inkscape:groupmode="layer"
     id="layer1">
    <path
       style="fill:#999999;fill-opacity:1;stroke:none;stroke-width:0.24153px;stroke-linecap:butt;stroke-linejoin:miter;stroke-opacity:1"
       d="m 134.05555,39.6875 c 0,0 0,-5.291667 0,0 0,5.291667 8.81945,23.8125 8.81945,23.8125 v 7.937499 l -13.22917,-13.229166 4.40972,-23.8125 z"
       id="path920" />
    <path
       id="path922"
       style="fill:#999999;fill-opacity:1;stroke:none;stroke-width:0.0256778;stroke-miterlimit:4;stroke-dasharray:none;stroke-opacity:1"
       d="m 127,55.562499 a 18.53652,12.538867 0 0 0 -18.44332,12.538771 18.53652,12.538867 0 0 0 0.41393,2.633429 18.267961,9.2560747 0 0 1 18.09398,-7.983492 18.267961,9.2560747 0 0 1 18.12034,8.080645 18.53652,12.538867 0 0 0 0.44494,-2.730582 18.53652,12.538867 0 0 0 -18.53634,-12.538771 18.53652,12.538867 0 0 0 -0.0935,0 z" />
    <ellipse
       style="fill:#999999;fill-opacity:1;stroke:none;stroke-width:0.037693;stroke-miterlimit:4;stroke-dasharray:none;stroke-opacity:1"
       id="ellipse924"
       cx="126.87144"
       cy="38.565666"
       rx="7.9920602"
       ry="22.787397" />
    <path
       style="fill:#999999;fill-opacity:1;stroke:none;stroke-width:0.24153px;stroke-linecap:butt;stroke-linejoin:miter;stroke-opacity:1"
       d="m 119.94444,39.6875 c 0,0 0,-5.291667 0,0 0,5.291667 -8.81944,23.8125 -8.81944,23.8125 v 7.937499 l 13.22917,-13.229166 -4.40973,-23.8125 z"
       id="path926" />
    <ellipse
       style="fill:#00ffff;fill-opacity:1;stroke:none;stroke-width:0.0458464"
       id="ellipse928"
       cx="126.99708"
       cy="27.740082"
       rx="2.5857565"
       ry="6.5489478" />
    <ellipse
       style="fill:#8bffff;fill-opacity:1;stroke:none;stroke-width:0.0353092"
       id="ellipse930"
       cx="127.05303"
       cy="27.860804"
       rx="1.8262384"
       ry="5.5000591" />
    <ellipse
       style="fill:#c8c8c8;fill-opacity:1;stroke:none;stroke-width:0.0245048"
       id="ellipse932"
       cx="127.0228"
       cy="49.505665"
       rx="5.1890092"
       ry="12.586418" />
    <path
       style="fill:#c8c8c8;fill-opacity:1;stroke:none;stroke-width:0.217131px;stroke-linecap:butt;stroke-linejoin:miter;stroke-opacity:1"
       d="m 124.73214,43.089285 c 0,0 0,-4.535715 0,0 0,4.535714 -8.31547,20.410714 -8.31547,20.410714 v 6.80357 L 128.88988,58.964284 124.73214,38.55357 Z"
       id="path934" />
    <path
       style="fill:#c8c8c8;fill-opacity:1;stroke:none;stroke-width:0.217131px;stroke-linecap:butt;stroke-linejoin:miter;stroke-opacity:1"
       d="m 131.15774,47.625 c 0,0 0,-4.535715 0,0 0,4.535714 8.31547,20.410714 8.31547,20.410714 v 6.80357 L 127,63.499999 131.15774,43.089285 Z"
       id="path936" />
    <ellipse
       style="fill:#666666;fill-opacity:1;stroke:none;stroke-width:0.0299641"
       id="ellipse938"
       cx="127.13488"
       cy="52.445953"
       rx="1.3229166"
       ry="13.669683" />
    <ellipse
       style="fill:#666666;fill-opacity:1;stroke:none;stroke-width:0.0298567"
       id="ellipse940"
       cx="126.99232"
       cy="69.954063"
       rx="18.517574"
       ry="7.7567773" />
    <ellipse
       style="fill:#999999;fill-opacity:1;stroke:none;stroke-width:0.0227435"
       id="ellipse942"
       cx="127.04827"
       cy="72.49115"
       rx="15.90537"
       ry="5.2402997" />
    <path
       style="fill:#969696;fill-opacity:1;stroke-width:0.00933843"
       id="path944"
       width="10.836685"
       height="17.115959"
       x="141.58038"
       y="72.210823"
       transform="matrix(0.90988094,-0.41486946,-0.35142028,0.93621781,0,0)"
       sodipodi:type="rect"
       d="m 141.58038,72.210823 h 10.83669 v 17.115959 h -10.83669 z" />
    <path
       id="path946"
       style="fill:#969696;fill-opacity:1;stroke-width:0.0234768"
       d="m 107.74878,9.8260112 a 11.002163,36.727385 6.8281939 0 0 -15.009931,36.4902268 11.002163,36.727385 6.8281939 0 0 7.101375,36.490226 11.002163,36.727385 6.8281939 0 0 0.877466,-0.111778 l -0.64182,-0.13836 10.64276,-71.279624 a 11.002163,36.727385 6.8281939 0 0 -2.93367,-1.4506908 11.002163,36.727385 6.8281939 0 0 -0.0362,0 z" />
    <path
       id="path948"
       style="fill:#c8c8c8;fill-opacity:1;stroke-width:0.0196749"
       d="m 107.86513,9.1370564 a 7.8775966,36.026186 7.0756767 0 0 -12.133373,35.7648786 7.8775966,36.026186 7.0756767 0 0 3.71112,35.76488 7.8775966,36.026186 7.0756767 0 0 0.632993,-0.109555 L 99.621178,80.421648 109.93849,10.55891 a 7.8775966,36.026186 7.0756767 0 0 -2.04744,-1.4218548 7.8775966,36.026186 7.0756767 0 0 -0.0259,0 z" />
    <path
       style="fill:#000000;fill-opacity:1;stroke:none;stroke-width:0.0356765;stroke-miterlimit:4;stroke-dasharray:none;stroke-opacity:1"
       id="path950"
       width="18.109179"
       height="3.3785362"
       x="174.95496"
       y="146.62831"
       transform="matrix(0.76168788,-0.64794411,-0.25339558,0.96736274,0,0)"
       sodipodi:type="rect"
       d="m 174.95496,146.62831 h 18.10917 v 3.37854 h -18.10917 z" />
    <path
       sodipodi:type="star"
       style="fill:#2b0000;fill-opacity:1;stroke:none;stroke-width:0.0209021;stroke-miterlimit:4;stroke-dasharray:none;stroke-opacity:1"
       id="path952"
       sodipodi:sides="3"
       sodipodi:cx="27.492117"
       sodipodi:cy="20.542912"
       sodipodi:r1="0.88193446"
       sodipodi:r2="0.44096723"
       sodipodi:arg1="-3.0020001"
       sodipodi:arg2="-1.9548025"
       inkscape:flatsided="true"
       inkscape:rounded="0"
       inkscape:randomized="0"
       inkscape:transform-center-x="0.084973162"
       inkscape:transform-center-y="0.12069447"
       transform="matrix(1.028816,-0.02892746,-0.20788199,2.5059085,85.149311,-32.07511)"
       d="m 26.618761,20.420199 1.416306,-0.57228 -0.212544,1.512697 z" />
    <ellipse
       style="fill:#000000;fill-opacity:1;stroke:none;stroke-width:0.0332015;stroke-miterlimit:4;stroke-dasharray:none;stroke-opacity:1"
       id="ellipse954"
       cx="99.366989"
       cy="67.263405"
       rx="9.6661777"
       ry="15.615402" />
    <path
       style="fill:#000000;stroke-width:0.042842"
       id="path956"
       width="9.0131884"
       height="6.5625319"
       x="192.28207"
       y="105.41209"
       transform="matrix(0.9166316,-0.39973305,-0.64600693,0.76333154,0,0)"
       sodipodi:type="rect"
       d="m 192.28207,105.41209 h 9.01319 v 6.56253 h -9.01319 z" />
    <path
       style="fill:#969696;fill-opacity:1;stroke-width:0.00933843"
       id="path960"
       width="10.836685"
       height="17.115959"
       x="-195.22047"
       y="-77.036919"
       transform="matrix(-0.90988094,-0.41486946,0.35142028,0.93621781,0,0)"
       sodipodi:type="rect"
       d="m -195.22047,-77.036919 h 10.83668 v 17.11596 h -10.83668 z" />
    <path
       id="path962"
       style="fill:#969696;fill-opacity:1;stroke-width:0.0234768"
       d="m 146.25121,9.8260095 a 36.727385,11.002163 83.171806 0 1 15.00994,36.4902265 36.727385,11.002163 83.171806 0 1 -7.10138,36.490226 36.727385,11.002163 83.171806 0 1 -0.87746,-0.111778 l 0.64182,-0.13836 L 143.28137,11.2767 a 36.727385,11.002163 83.171806 0 1 2.93367,-1.4506905 36.727385,11.002163 83.171806 0 1 0.0362,0 z" />
    <path
       id="path964"
       style="fill:#c8c8c8;fill-opacity:1;stroke-width:0.0196749"
       d="m 146.13487,9.1370547 a 36.026186,7.8775966 82.924323 0 1 12.13337,35.7648783 36.026186,7.8775966 82.924323 0 1 -3.71112,35.76488 36.026186,7.8775966 82.924323 0 1 -0.63299,-0.109555 l 0.45469,-0.135612 -10.31731,-69.862738 a 36.026186,7.8775966 82.924323 0 1 2.04744,-1.4218545 36.026186,7.8775966 82.924323 0 1 0.0259,0 z" />
    <path
       style="fill:#000000;fill-opacity:1;stroke:none;stroke-width:0.0356765;stroke-miterlimit:4;stroke-dasharray:none;stroke-opacity:1"
       id="path966"
       width="18.109179"
       height="3.3785362"
       x="-254.12639"
       y="-140.7724"
       transform="matrix(-0.76168788,-0.64794411,0.25339558,0.96736274,0,0)"
       sodipodi:type="rect"
       d="m -254.12639,-140.7724 h 18.10918 v 3.37854 h -18.10918 z" />
    <path
       sodipodi:type="star"
       style="fill:#2b0000;fill-opacity:1;stroke:none;stroke-width:0.0209021;stroke-miterlimit:4;stroke-dasharray:none;stroke-opacity:1"
       id="path968"
       sodipodi:sides="3"
       sodipodi:cx="27.492117"
       sodipodi:cy="20.542912"
       sodipodi:r1="0.88193446"
       sodipodi:r2="0.44096723"
       sodipodi:arg1="-3.0020001"
       sodipodi:arg2="-1.9548025"
       inkscape:flatsided="true"
       inkscape:rounded="0"
       inkscape:randomized="0"
       inkscape:transform-center-x="0.084973162"
       inkscape:transform-center-y="0.12069447"
       transform="matrix(-1.028816,-0.02892746,0.20788199,2.5059085,168.85068,-32.075112)"
       d="m 26.618761,20.420199 1.416306,-0.57228 -0.212544,1.512697 z" />
    <ellipse
       style="fill:#000000;fill-opacity:1;stroke:none;stroke-width:0.0332015;stroke-miterlimit:4;stroke-dasharray:none;stroke-opacity:1"
       id="ellipse970"
       cx="-154.63301"
       cy="67.263405"
       rx="9.6661777"
       ry="15.615402"
       transform="scale(-1,1)" />
    <path
       style="fill:#000000;stroke-width:0.042842"
       id="path972"
       width="9.0131884"
       height="6.5625319"
       x="-246.90759"
       y="-124.57793"
       transform="matrix(-0.9166316,-0.39973305,0.64600693,0.76333154,0,0)"
       sodipodi:type="rect"
       d="m -246.90759,-124.57793 h 9.01319 v 6.56254 h -9.01319 z" />
    <path
       style="fill:#999999;fill-opacity:1;stroke:none;stroke-width:0.24153px;stroke-linecap:butt;stroke-linejoin:miter;stroke-opacity:1"
       d="m 218.72222,40.443452 c 0,0 0,-5.291667 0,0 0,5.291667 8.81944,23.8125 8.81944,23.8125 v 7.937499 l -13.22916,-13.229166 4.40972,-23.8125 z"
       id="path978" />
    <path
       id="path980"
       style="fill:#999999;fill-opacity:1;stroke:none;stroke-width:0.0256778;stroke-miterlimit:4;stroke-dasharray:none;stroke-opacity:1"
       d="m 211.66666,56.318451 a 18.53652,12.538867 0 0 0 -18.44332,12.538771 18.53652,12.538867 0 0 0 0.41393,2.633429 18.267961,9.2560747 0 0 1 18.09399,-7.983492 18.267961,9.2560747 0 0 1 18.12034,8.080645 18.53652,12.538867 0 0 0 0.44493,-2.730582 18.53652,12.538867 0 0 0 -18.53633,-12.538771 18.53652,12.538867 0 0 0 -0.0935,0 z" />
    <ellipse
       style="fill:#999999;fill-opacity:1;stroke:none;stroke-width:0.037693;stroke-miterlimit:4;stroke-dasharray:none;stroke-opacity:1"
       id="ellipse982"
       cx="211.5381"
       cy="39.321617"
       rx="7.9920602"
       ry="22.787397" />
    <path
       style="fill:#999999;fill-opacity:1;stroke:none;stroke-width:0.24153px;stroke-linecap:butt;stroke-linejoin:miter;stroke-opacity:1"
       d="m 204.61111,40.443452 c 0,0 0,-5.291667 0,0 0,5.291667 -8.81945,23.8125 -8.81945,23.8125 v 7.937499 l 13.22917,-13.229166 -4.40972,-23.8125 z"
       id="path984" />
    <ellipse
       style="fill:#00ffff;fill-opacity:1;stroke:none;stroke-width:0.0458464"
       id="ellipse986"
       cx="211.66374"
       cy="28.496033"
       rx="2.5857565"
       ry="6.5489478" />
    <ellipse
       style="fill:#8bffff;fill-opacity:1;stroke:none;stroke-width:0.0353092"
       id="ellipse988"
       cx="211.7197"
       cy="28.616755"
       rx="1.8262384"
       ry="5.5000591" />
    <ellipse
       style="fill:#c8c8c8;fill-opacity:1;stroke:none;stroke-width:0.0245048"
       id="ellipse990"
       cx="211.68947"
       cy="50.261616"
       rx="5.1890092"
       ry="12.586418" />
    <path
       style="fill:#c8c8c8;fill-opacity:1;stroke:none;stroke-width:0.217131px;stroke-linecap:butt;stroke-linejoin:miter;stroke-opacity:1"
       d="m 209.39881,45.735118 c 0,0 0,-4.535715 0,0 0,4.535714 -8.31548,20.410714 -8.31548,20.410714 v 6.80357 l 12.47322,-11.339285 -4.15774,-20.410714 z"
       id="path992" />
    <path
       style="fill:#c8c8c8;fill-opacity:1;stroke:none;stroke-width:0.217131px;stroke-linecap:butt;stroke-linejoin:miter;stroke-opacity:1"
       d="m 215.8244,47.625 c 0,0 0,-4.535715 0,0 0,4.535714 8.31548,20.410714 8.31548,20.410714 v 6.80357 L 211.66666,63.499999 215.8244,43.089285 Z"
       id="path994" />
    <ellipse
       style="fill:#666666;fill-opacity:1;stroke:none;stroke-width:0.0299641"
       id="ellipse996"
       cx="211.80154"
       cy="53.201904"
       rx="1.3229166"
       ry="13.669683" />
    <ellipse
       style="fill:#666666;fill-opacity:1;stroke:none;stroke-width:0.0298567"
       id="ellipse998"
       cx="211.65898"
       cy="70.710014"
       rx="18.517574"
       ry="7.7567773" />
    <ellipse
       style="fill:#999999;fill-opacity:1;stroke:none;stroke-width:0.0227435"
       id="ellipse1000"
       cx="211.71494"
       cy="73.247101"
       rx="15.90537"
       ry="5.2402997" />
    <g
       id="g1016"
       transform="translate(169.33333,0.7559516)">
      <path
         style="fill:#969696;fill-opacity:1;stroke-width:0.00933843"
         id="path1002"
         width="10.836685"
         height="17.115959"
         x="29.313427"
         y="22.461576"
         transform="matrix(0.90988094,-0.41486946,-0.35142028,0.93621781,0,0)"
         sodipodi:type="rect"
         d="m 29.313427,22.461576 h 10.836685 v 17.11596 H 29.313427 Z" />
      <path
         id="path1004"
         style="fill:#969696;fill-opacity:1;stroke-width:0.0234768"
         d="M 23.082119,9.8260112 A 11.002163,36.727385 6.8281939 0 0 8.0721827,46.316238 11.002163,36.727385 6.8281939 0 0 15.173558,82.806464 11.002163,36.727385 6.8281939 0 0 16.051024,82.694686 l -0.641821,-0.13836 10.642761,-71.279624 a 11.002163,36.727385 6.8281939 0 0 -2.933671,-1.4506908 11.002163,36.727385 6.8281939 0 0 -0.03617,0 z" />
      <path
         id="path1006"
         style="fill:#c8c8c8;fill-opacity:1;stroke-width:0.0196749"
         d="m 23.19846,9.1370564 a 7.8775966,36.026186 7.0756767 0 0 -12.133369,35.7648786 7.8775966,36.026186 7.0756767 0 0 3.71112,35.76488 7.8775966,36.026186 7.0756767 0 0 0.632992,-0.109555 L 14.954512,80.421648 25.27182,10.55891 a 7.8775966,36.026186 7.0756767 0 0 -2.047438,-1.4218548 7.8775966,36.026186 7.0756767 0 0 -0.02592,0 z" />
      <path
         style="fill:#000000;fill-opacity:1;stroke:none;stroke-width:0.0356765;stroke-miterlimit:4;stroke-dasharray:none;stroke-opacity:1"
         id="path1008"
         width="18.109179"
         height="3.3785362"
         x="31.927839"
         y="50.828075"
         transform="matrix(0.76168788,-0.64794411,-0.25339558,0.96736274,0,0)"
         sodipodi:type="rect"
         d="m 31.927839,50.828075 h 18.109179 v 3.378537 H 31.927839 Z" />
      <path
         sodipodi:type="star"
         style="fill:#2b0000;fill-opacity:1;stroke:none;stroke-width:0.0209021;stroke-miterlimit:4;stroke-dasharray:none;stroke-opacity:1"
         id="path1010"
         sodipodi:sides="3"
         sodipodi:cx="27.492117"
         sodipodi:cy="20.542912"
         sodipodi:r1="0.88193446"
         sodipodi:r2="0.44096723"
         sodipodi:arg1="-3.0020001"
         sodipodi:arg2="-1.9548025"
         inkscape:flatsided="true"
         inkscape:rounded="0"
         inkscape:randomized="0"
         inkscape:transform-center-x="0.084973162"
         inkscape:transform-center-y="0.12069447"
         transform="matrix(1.028816,-0.02892746,-0.20788199,2.5059085,0.482645,-32.07511)"
         d="m 26.618761,20.420199 1.416306,-0.57228 -0.212544,1.512697 z" />
      <ellipse
         style="fill:#000000;fill-opacity:1;stroke:none;stroke-width:0.0332015;stroke-miterlimit:4;stroke-dasharray:none;stroke-opacity:1"
         id="ellipse1012"
         cx="14.70032"
         cy="67.263405"
         rx="9.6661777"
         ry="15.615402" />
      <path
         style="fill:#000000;stroke-width:0.042842"
         id="path1014"
         width="9.0131884"
         height="6.5625319"
         x="45.885521"
         y="28.748751"
         transform="matrix(0.9166316,-0.39973305,-0.64600693,0.76333154,0,0)"
         sodipodi:type="rect"
         d="m 45.885521,28.748751 h 9.013188 v 6.562532 h -9.013188 z" />
    </g>
    <g
       id="g1328">
      <path
         style="fill:#999999;fill-opacity:1;stroke:none;stroke-width:0.24153px;stroke-linecap:butt;stroke-linejoin:miter;stroke-opacity:1"
         d="m 49.388888,39.6875 c 0,0 0,-5.291667 0,0 0,5.291667 8.819445,23.8125 8.819445,23.8125 v 7.937499 l -13.229167,-13.229166 4.409722,-23.8125 z"
         id="path869" />
      <path
         id="path975"
         style="fill:#999999;fill-opacity:1;stroke:none;stroke-width:0.0256778;stroke-miterlimit:4;stroke-dasharray:none;stroke-opacity:1"
         d="m 42.333333,55.562499 a 18.53652,12.538867 0 0 0 -18.443319,12.538771 18.53652,12.538867 0 0 0 0.413929,2.633429 18.267961,9.2560747 0 0 1 18.093985,-7.983492 18.267961,9.2560747 0 0 1 18.120341,8.080645 18.53652,12.538867 0 0 0 0.444934,-2.730582 18.53652,12.538867 0 0 0 -18.536335,-12.538771 18.53652,12.538867 0 0 0 -0.09353,0 z" />
      <ellipse
         style="fill:#999999;fill-opacity:1;stroke:none;stroke-width:0.037693;stroke-miterlimit:4;stroke-dasharray:none;stroke-opacity:1"
         id="path986"
         cx="42.204769"
         cy="38.565666"
         rx="7.9920602"
         ry="22.787397" />
      <path
         style="fill:#999999;fill-opacity:1;stroke:none;stroke-width:0.24153px;stroke-linecap:butt;stroke-linejoin:miter;stroke-opacity:1"
         d="m 35.277777,39.6875 c 0,0 0,-5.291667 0,0 0,5.291667 -8.819445,23.8125 -8.819445,23.8125 v 7.937499 l 13.229167,-13.229166 -4.409722,-23.8125 z"
         id="path843" />
      <ellipse
         style="fill:#00ffff;fill-opacity:1;stroke:none;stroke-width:0.0458464"
         id="path847"
         cx="42.33041"
         cy="27.740082"
         rx="2.5857565"
         ry="6.5489478" />
      <ellipse
         style="fill:#8bffff;fill-opacity:1;stroke:none;stroke-width:0.0353092"
         id="ellipse849"
         cx="42.386364"
         cy="27.860804"
         rx="1.8262384"
         ry="5.5000591" />
      <ellipse
         style="fill:#c8c8c8;fill-opacity:1;stroke:none;stroke-width:0.0245048"
         id="path855"
         cx="42.356133"
         cy="49.505665"
         rx="5.1890092"
         ry="12.586418" />
      <path
         style="fill:#c8c8c8;fill-opacity:1;stroke:none;stroke-width:0.217131px;stroke-linecap:butt;stroke-linejoin:miter;stroke-opacity:1"
         d="m 40.821428,42.333334 c 0,0 0,-4.535715 0,0 0,4.535714 -8.315476,20.410714 -8.315476,20.410714 v 6.80357 L 44.979166,58.208333 40.821428,37.797619 Z"
         id="path861" />
      <path
         style="fill:#c8c8c8;fill-opacity:1;stroke:none;stroke-width:0.217131px;stroke-linecap:butt;stroke-linejoin:miter;stroke-opacity:1"
         d="m 46.491072,47.625 c 0,0 0,-4.535715 0,0 0,4.535714 8.315476,20.410714 8.315476,20.410714 v 6.80357 L 42.333333,63.499999 46.491072,43.089285 Z"
         id="path888" />
      <ellipse
         style="fill:#666666;fill-opacity:1;stroke:none;stroke-width:0.0299641"
         id="path857"
         cx="42.468212"
         cy="52.445953"
         rx="1.3229166"
         ry="13.669683" />
      <ellipse
         style="fill:#666666;fill-opacity:1;stroke:none;stroke-width:0.0298567"
         id="path851"
         cx="42.325649"
         cy="69.954063"
         rx="18.517574"
         ry="7.7567773" />
      <ellipse
         style="fill:#999999;fill-opacity:1;stroke:none;stroke-width:0.0227435"
         id="ellipse853"
         cx="42.381603"
         cy="72.49115"
         rx="15.90537"
         ry="5.2402997" />
      <g
         id="g886"
         transform="matrix(-1,0,0,1,84.666665,-1.3497378e-6)">
        <path
           style="fill:#969696;fill-opacity:1;stroke-width:0.00933843"
           id="path871"
           width="10.836685"
           height="17.115959"
           x="29.313427"
           y="22.461576"
           transform="matrix(0.90988094,-0.41486946,-0.35142028,0.93621781,0,0)"
           sodipodi:type="rect"
           d="m 29.313427,22.461576 h 10.836685 v 17.11596 H 29.313427 Z" />
        <path
           id="path873"
           style="fill:#969696;fill-opacity:1;stroke-width:0.0234768"
           d="M 23.082119,9.8260112 A 11.002163,36.727385 6.8281939 0 0 8.0721827,46.316238 11.002163,36.727385 6.8281939 0 0 15.173558,82.806464 11.002163,36.727385 6.8281939 0 0 16.051024,82.694686 l -0.641821,-0.13836 10.642761,-71.279624 a 11.002163,36.727385 6.8281939 0 0 -2.933671,-1.4506908 11.002163,36.727385 6.8281939 0 0 -0.03617,0 z" />
        <path
           id="path875"
           style="fill:#c8c8c8;fill-opacity:1;stroke-width:0.0196749"
           d="m 23.19846,9.1370564 a 7.8775966,36.026186 7.0756767 0 0 -12.133369,35.7648786 7.8775966,36.026186 7.0756767 0 0 3.71112,35.76488 7.8775966,36.026186 7.0756767 0 0 0.632992,-0.109555 L 14.954512,80.421648 25.27182,10.55891 a 7.8775966,36.026186 7.0756767 0 0 -2.047438,-1.4218548 7.8775966,36.026186 7.0756767 0 0 -0.02592,0 z" />
        <path
           style="fill:#000000;fill-opacity:1;stroke:none;stroke-width:0.0356765;stroke-miterlimit:4;stroke-dasharray:none;stroke-opacity:1"
           id="path878"
           width="18.109179"
           height="3.3785362"
           x="31.927839"
           y="50.828075"
           transform="matrix(0.76168788,-0.64794411,-0.25339558,0.96736274,0,0)"
           sodipodi:type="rect"
           d="m 31.927839,50.828075 h 18.109179 v 3.378537 H 31.927839 Z" />
        <path
           sodipodi:type="star"
           style="fill:#2b0000;fill-opacity:1;stroke:none;stroke-width:0.0209021;stroke-miterlimit:4;stroke-dasharray:none;stroke-opacity:1"
           id="path880"
           sodipodi:sides="3"
           sodipodi:cx="27.492117"
           sodipodi:cy="20.542912"
           sodipodi:r1="0.88193446"
           sodipodi:r2="0.44096723"
           sodipodi:arg1="-3.0020001"
           sodipodi:arg2="-1.9548025"
           inkscape:flatsided="true"
           inkscape:rounded="0"
           inkscape:randomized="0"
           inkscape:transform-center-x="0.084973162"
           inkscape:transform-center-y="0.12069447"
           transform="matrix(1.028816,-0.02892746,-0.20788199,2.5059085,0.482645,-32.07511)"
           d="m 26.618761,20.420199 1.416306,-0.57228 -0.212544,1.512697 z" />
        <ellipse
           style="fill:#000000;fill-opacity:1;stroke:none;stroke-width:0.0332015;stroke-miterlimit:4;stroke-dasharray:none;stroke-opacity:1"
           id="ellipse882"
           cx="14.70032"
           cy="67.263405"
           rx="9.6661777"
           ry="15.615402" />
        <path
           style="fill:#000000;stroke-width:0.042842"
           id="path884"
           width="9.0131884"
           height="6.5625319"
           x="45.885521"
           y="28.748751"
           transform="matrix(0.9166316,-0.39973305,-0.64600693,0.76333154,0,0)"
           sodipodi:type="rect"
           d="m 45.885521,28.748751 h 9.013188 v 6.562532 h -9.013188 z" />
      </g>
      <g
         id="g1207"
         transform="translate(39.6875,10.583333)">
        <path
           style="fill:#969696;fill-opacity:1;stroke-width:0.00933843"
           id="rect1822"
           width="10.836685"
           height="17.115959"
           x="-21.562611"
           y="-11.38765"
           transform="matrix(0.90988094,-0.41486946,-0.35142028,0.93621781,0,0)"
           sodipodi:type="rect"
           d="m -21.562611,-11.38765 h 10.836686 V 5.7283096 h -10.836686 z" />
        <path
           id="path1826"
           style="fill:#969696;fill-opacity:1;stroke-width:0.0234768"
           d="m -11.313713,-0.7573238 a 11.002163,36.727385 6.8281939 0 0 -15.009936,36.4902268 11.002163,36.727385 6.8281939 0 0 7.101375,36.490226 11.002163,36.727385 6.8281939 0 0 0.877466,-0.111778 l -0.641821,-0.13836 10.642761,-71.279624 a 11.002163,36.727385 6.8281939 0 0 -2.933671,-1.4506908 11.002163,36.727385 6.8281939 0 0 -0.03617,0 z" />
        <path
           id="path877"
           style="fill:#c8c8c8;fill-opacity:1;stroke-width:0.0196749"
           d="M -11.197372,-1.4462786 A 7.8775966,36.026186 7.0756767 0 0 -23.330741,34.3186 a 7.8775966,36.026186 7.0756767 0 0 3.71112,35.76488 7.8775966,36.026186 7.0756767 0 0 0.632992,-0.109555 L -19.44132,69.838313 -9.124012,-0.024425 a 7.8775966,36.026186 7.0756767 0 0 -2.047438,-1.4218548 7.8775966,36.026186 7.0756767 0 0 -0.02592,0 z" />
        <path
           style="fill:#000000;fill-opacity:1;stroke:none;stroke-width:0.0356765;stroke-miterlimit:4;stroke-dasharray:none;stroke-opacity:1"
           id="rect883"
           width="18.109179"
           height="3.3785362"
           x="-30.860077"
           y="-2.1679654"
           transform="matrix(0.76168788,-0.64794411,-0.25339558,0.96736274,0,0)"
           sodipodi:type="rect"
           d="m -30.860077,-2.1679654 h 18.109179 v 3.3785362 h -18.109179 z" />
        <path
           sodipodi:type="star"
           style="fill:#2b0000;fill-opacity:1;stroke:none;stroke-width:0.0209021;stroke-miterlimit:4;stroke-dasharray:none;stroke-opacity:1"
           id="path887"
           sodipodi:sides="3"
           sodipodi:cx="27.492117"
           sodipodi:cy="20.542912"
           sodipodi:r1="0.88193446"
           sodipodi:r2="0.44096723"
           sodipodi:arg1="-3.0020001"
           sodipodi:arg2="-1.9548025"
           inkscape:flatsided="true"
           inkscape:rounded="0"
           inkscape:randomized="0"
           inkscape:transform-center-x="0.084973162"
           inkscape:transform-center-y="0.12069447"
           transform="matrix(1.028816,-0.02892746,-0.20788199,2.5059085,-33.913187,-42.658445)"
           d="m 26.618761,20.420199 1.416306,-0.57228 -0.212544,1.512697 z" />
        <path
           style="fill:#000000;stroke-width:0.042842"
           id="rect858"
           width="9.0131884"
           height="6.5625319"
           x="-29.074995"
           y="-24.370411"
           transform="matrix(0.9166316,-0.39973305,-0.64600693,0.76333154,0,0)"
           sodipodi:type="rect"
           d="m -29.074995,-24.370411 h 9.013188 v 6.562532 h -9.013188 z" />
        <path
           style="fill:#969696;fill-opacity:0.203922;stroke-width:0.00933843"
           id="path1148"
           width="10.836685"
           height="17.115959"
           x="-21.562611"
           y="-11.38765"
           transform="matrix(0.90988094,-0.41486946,-0.35142028,0.93621781,0,0)"
           sodipodi:type="rect"
           d="m -21.562611,-11.38765 h 10.836686 V 5.7283096 h -10.836686 z" />
        <path
           id="path1150"
           style="fill:#969696;fill-opacity:0.203922;stroke-width:0.0234768"
           d="m -11.313713,-0.7573238 a 11.002163,36.727385 6.8281939 0 0 -15.009936,36.4902268 11.002163,36.727385 6.8281939 0 0 7.101375,36.490226 11.002163,36.727385 6.8281939 0 0 0.877466,-0.111778 l -0.641821,-0.13836 10.642761,-71.279624 a 11.002163,36.727385 6.8281939 0 0 -2.933671,-1.4506908 11.002163,36.727385 6.8281939 0 0 -0.03617,0 z" />
        <path
           id="path1152"
           style="fill:#969696;fill-opacity:0.203922;stroke-width:0.0196749"
           d="M -11.197372,-1.4462786 A 7.8775966,36.026186 7.0756767 0 0 -23.330741,34.3186 a 7.8775966,36.026186 7.0756767 0 0 3.71112,35.76488 7.8775966,36.026186 7.0756767 0 0 0.632992,-0.109555 L -19.44132,69.838313 -9.124012,-0.024425 a 7.8775966,36.026186 7.0756767 0 0 -2.047438,-1.4218548 7.8775966,36.026186 7.0756767 0 0 -0.02592,0 z" />
        <path
           style="fill:#969696;fill-opacity:0.203922;stroke:none;stroke-width:0.0356765;stroke-miterlimit:4;stroke-dasharray:none;stroke-opacity:1"
           id="path1154"
           width="18.109179"
           height="3.3785362"
           x="-30.860077"
           y="-2.1679654"
           transform="matrix(0.76168788,-0.64794411,-0.25339558,0.96736274,0,0)"
           sodipodi:type="rect"
           d="m -30.860077,-2.1679654 h 18.109179 v 3.3785362 h -18.109179 z" />
        <path
           sodipodi:type="star"
           style="fill:#969696;fill-opacity:0.203922;stroke:none;stroke-width:0.0209021;stroke-miterlimit:4;stroke-dasharray:none;stroke-opacity:1"
           id="path1156"
           sodipodi:sides="3"
           sodipodi:cx="27.492117"
           sodipodi:cy="20.542912"
           sodipodi:r1="0.88193446"
           sodipodi:r2="0.44096723"
           sodipodi:arg1="-3.0020001"
           sodipodi:arg2="-1.9548025"
           inkscape:flatsided="true"
           inkscape:rounded="0"
           inkscape:randomized="0"
           inkscape:transform-center-x="0.084973162"
           inkscape:transform-center-y="0.12069447"
           transform="matrix(1.028816,-0.02892746,-0.20788199,2.5059085,-33.913187,-42.658445)"
           d="m 26.618761,20.420199 1.416306,-0.57228 -0.212544,1.512697 z" />
        <path
           style="fill:#969696;fill-opacity:0.203922;stroke-width:0.042842"
           id="path1160"
           width="9.0131884"
           height="6.5625319"
           x="-29.074995"
           y="-24.370411"
           transform="matrix(0.9166316,-0.39973305,-0.64600693,0.76333154,0,0)"
           sodipodi:type="rect"
           d="m -29.074995,-24.370411 h 9.013188 v 6.562532 h -9.013188 z" />
        <ellipse
           style="fill:#000000;fill-opacity:1;stroke:none;stroke-width:0.0332015;stroke-miterlimit:4;stroke-dasharray:none;stroke-opacity:1"
           id="path891"
           cx="-19.695511"
           cy="56.680069"
           rx="9.6661777"
           ry="15.615402" />
      </g>
    </g>
    <g
       id="g1264"
       transform="translate(-46.704508,6.3383208)">
      <path
         style="fill:#969696;fill-opacity:1;stroke-width:0.00933843"
         id="path1018"
         width="10.836685"
         height="17.115959"
         x="-365.55508"
         y="-159.28801"
         transform="matrix(-0.90988094,-0.41486946,0.35142028,0.93621781,0,0)"
         sodipodi:type="rect"
         d="m -365.55508,-159.28801 h 10.83668 v 17.11596 h -10.83668 z" />
      <path
         id="path1020"
         style="fill:#969696;fill-opacity:1;stroke-width:0.0234768"
         d="m 272.33072,3.4876956 a 36.727385,11.002163 83.171806 0 1 15.00994,36.4902264 36.727385,11.002163 83.171806 0 1 -7.10138,36.490226 36.727385,11.002163 83.171806 0 1 -0.87746,-0.111778 l 0.64182,-0.13836 -10.64276,-71.2796236 a 36.727385,11.002163 83.171806 0 1 2.93367,-1.4506908 36.727385,11.002163 83.171806 0 1 0.0362,0 z" />
      <path
         id="path1022"
         style="fill:#c8c8c8;fill-opacity:1;stroke-width:0.0196749"
         d="m 272.21438,2.7987408 a 36.026186,7.8775966 82.924323 0 1 12.13337,35.7648782 36.026186,7.8775966 82.924323 0 1 -3.71112,35.76488 36.026186,7.8775966 82.924323 0 1 -0.63299,-0.109555 l 0.45469,-0.135612 -10.31731,-69.8627376 a 36.026186,7.8775966 82.924323 0 1 2.04744,-1.4218548 36.026186,7.8775966 82.924323 0 1 0.0259,0 z" />
      <path
         style="fill:#000000;fill-opacity:1;stroke:none;stroke-width:0.0356765;stroke-miterlimit:4;stroke-dasharray:none;stroke-opacity:1"
         id="path1024"
         width="18.109179"
         height="3.3785362"
         x="-469.91681"
         y="-291.862"
         transform="matrix(-0.76168788,-0.64794411,0.25339558,0.96736274,0,0)"
         sodipodi:type="rect"
         d="m -469.91681,-291.862 h 18.10918 v 3.37854 h -18.10918 z" />
      <path
         sodipodi:type="star"
         style="fill:#2b0000;fill-opacity:1;stroke:none;stroke-width:0.0209021;stroke-miterlimit:4;stroke-dasharray:none;stroke-opacity:1"
         id="path1026"
         sodipodi:sides="3"
         sodipodi:cx="27.492117"
         sodipodi:cy="20.542912"
         sodipodi:r1="0.88193446"
         sodipodi:r2="0.44096723"
         sodipodi:arg1="-3.0020001"
         sodipodi:arg2="-1.9548025"
         inkscape:flatsided="true"
         inkscape:rounded="0"
         inkscape:randomized="0"
         inkscape:transform-center-x="0.084973162"
         inkscape:transform-center-y="0.12069447"
         transform="matrix(-1.028816,-0.02892746,0.20788199,2.5059085,294.9302,-38.413426)"
         d="m 26.618761,20.420199 1.416306,-0.57228 -0.212544,1.512697 z" />
      <path
         style="fill:#000000;stroke-width:0.042842"
         id="path1030"
         width="9.0131884"
         height="6.5625319"
         x="-474.18588"
         y="-251.89999"
         transform="matrix(-0.9166316,-0.39973305,0.64600693,0.76333154,0,0)"
         sodipodi:type="rect"
         d="m -474.18588,-251.89999 h 9.01319 v 6.56253 h -9.01319 z" />
      <path
         style="fill:#969696;fill-opacity:0.203922;stroke-width:0.00933843"
         id="path1164"
         width="10.836685"
         height="17.115959"
         x="-365.55508"
         y="-159.28801"
         transform="matrix(-0.90988094,-0.41486946,0.35142028,0.93621781,0,0)"
         sodipodi:type="rect"
         d="m -365.55508,-159.28801 h 10.83668 v 17.11596 h -10.83668 z" />
      <path
         id="path1166"
         style="fill:#969696;fill-opacity:0.203922;stroke-width:0.0234768"
         d="m 272.33072,3.4876956 a 36.727385,11.002163 83.171806 0 1 15.00994,36.4902264 36.727385,11.002163 83.171806 0 1 -7.10138,36.490226 36.727385,11.002163 83.171806 0 1 -0.87746,-0.111778 l 0.64182,-0.13836 -10.64276,-71.2796236 a 36.727385,11.002163 83.171806 0 1 2.93367,-1.4506908 36.727385,11.002163 83.171806 0 1 0.0362,0 z" />
      <path
         id="path1168"
         style="fill:#969696;fill-opacity:0.203922;stroke-width:0.0196749"
         d="m 272.21438,2.7987408 a 36.026186,7.8775966 82.924323 0 1 12.13337,35.7648782 36.026186,7.8775966 82.924323 0 1 -3.71112,35.76488 36.026186,7.8775966 82.924323 0 1 -0.63299,-0.109555 l 0.45469,-0.135612 -10.31731,-69.8627376 a 36.026186,7.8775966 82.924323 0 1 2.04744,-1.4218548 36.026186,7.8775966 82.924323 0 1 0.0259,0 z" />
      <path
         style="fill:#969696;fill-opacity:0.203922;stroke:none;stroke-width:0.0356765;stroke-miterlimit:4;stroke-dasharray:none;stroke-opacity:1"
         id="path1170"
         width="18.109179"
         height="3.3785362"
         x="-469.91681"
         y="-291.862"
         transform="matrix(-0.76168788,-0.64794411,0.25339558,0.96736274,0,0)"
         sodipodi:type="rect"
         d="m -469.91681,-291.862 h 18.10918 v 3.37854 h -18.10918 z" />
      <path
         sodipodi:type="star"
         style="fill:#969696;fill-opacity:0.203922;stroke:none;stroke-width:0.0209021;stroke-miterlimit:4;stroke-dasharray:none;stroke-opacity:1"
         id="path1172"
         sodipodi:sides="3"
         sodipodi:cx="27.492117"
         sodipodi:cy="20.542912"
         sodipodi:r1="0.88193446"
         sodipodi:r2="0.44096723"
         sodipodi:arg1="-3.0020001"
         sodipodi:arg2="-1.9548025"
         inkscape:flatsided="true"
         inkscape:rounded="0"
         inkscape:randomized="0"
         inkscape:transform-center-x="0.084973162"
         inkscape:transform-center-y="0.12069447"
         transform="matrix(-1.028816,-0.02892746,0.20788199,2.5059085,294.9302,-38.413426)"
         d="m 26.618761,20.420199 1.416306,-0.57228 -0.212544,1.512697 z" />
      <path
         style="fill:#969696;fill-opacity:0.203922;stroke-width:0.042842"
         id="path1176"
         width="9.0131884"
         height="6.5625319"
         x="-474.18588"
         y="-251.89999"
         transform="matrix(-0.9166316,-0.39973305,0.64600693,0.76333154,0,0)"
         sodipodi:type="rect"
         d="m -474.18588,-251.89999 h 9.01319 v 6.56253 h -9.01319 z" />
      <ellipse
         style="fill:#000000;fill-opacity:1;stroke:none;stroke-width:0.0332015;stroke-miterlimit:4;stroke-dasharray:none;stroke-opacity:1"
         id="ellipse1028"
         cx="-280.71252"
         cy="60.925091"
         rx="9.6661777"
         ry="15.615402"
         transform="scale(-1,1)" />
    </g>
    <path
       style="fill:#000000;stroke-width:0.042842"
       id="path969"
       width="9.0131884"
       height="6.5625319"
       x="55.035309"
       y="33.540207"
       transform="matrix(0.9166316,-0.39973305,-0.64600693,0.76333154,0,0)"
       sodipodi:type="rect"
       d="m 55.035309,33.540207 h 9.013188 v 6.562532 h -9.013188 z" />
    <path
       style="fill:#969696;fill-opacity:1;stroke-width:0.00933843"
       id="path979"
       width="10.836685"
       height="17.115959"
       x="-195.22047"
       y="-77.036919"
       transform="matrix(-0.90988094,-0.41486946,0.35142028,0.93621781,0,0)"
       sodipodi:type="rect"
       d="m -195.22047,-77.036919 h 10.83668 v 17.11596 h -10.83668 z" />
    <path
       id="path981"
       style="fill:#969696;fill-opacity:1;stroke-width:0.0234768"
       d="m 146.25121,9.8260095 a 36.727385,11.002163 83.171806 0 1 15.00994,36.4902265 36.727385,11.002163 83.171806 0 1 -7.10138,36.490226 36.727385,11.002163 83.171806 0 1 -0.87746,-0.111778 l 0.64182,-0.13836 L 143.28137,11.2767 a 36.727385,11.002163 83.171806 0 1 2.93367,-1.4506905 36.727385,11.002163 83.171806 0 1 0.0362,0 z" />
    <path
       id="path983"
       style="fill:#c8c8c8;fill-opacity:1;stroke-width:0.0196749"
       d="m 146.13487,9.1370547 a 36.026186,7.8775966 82.924323 0 1 12.13337,35.7648783 36.026186,7.8775966 82.924323 0 1 -3.71112,35.76488 36.026186,7.8775966 82.924323 0 1 -0.63299,-0.109555 l 0.45469,-0.135612 -10.31731,-69.862738 a 36.026186,7.8775966 82.924323 0 1 2.04744,-1.4218545 36.026186,7.8775966 82.924323 0 1 0.0259,0 z" />
    <path
       style="fill:#000000;fill-opacity:1;stroke:none;stroke-width:0.0356765;stroke-miterlimit:4;stroke-dasharray:none;stroke-opacity:1"
       id="path985"
       width="18.109179"
       height="3.3785362"
       x="-254.12639"
       y="-140.7724"
       transform="matrix(-0.76168788,-0.64794411,0.25339558,0.96736274,0,0)"
       sodipodi:type="rect"
       d="m -254.12639,-140.7724 h 18.10918 v 3.37854 h -18.10918 z" />
    <path
       sodipodi:type="star"
       style="fill:#2b0000;fill-opacity:1;stroke:none;stroke-width:0.0209021;stroke-miterlimit:4;stroke-dasharray:none;stroke-opacity:1"
       id="path987"
       sodipodi:sides="3"
       sodipodi:cx="27.492117"
       sodipodi:cy="20.542912"
       sodipodi:r1="0.88193446"
       sodipodi:r2="0.44096723"
       sodipodi:arg1="-3.0020001"
       sodipodi:arg2="-1.9548025"
       inkscape:flatsided="true"
       inkscape:rounded="0"
       inkscape:randomized="0"
       inkscape:transform-center-x="0.084973162"
       inkscape:transform-center-y="0.12069447"
       transform="matrix(-1.028816,-0.02892746,0.20788199,2.5059085,168.85068,-32.075112)"
       d="m 26.618761,20.420199 1.416306,-0.57228 -0.212544,1.512697 z" />
    <ellipse
       style="fill:#000000;fill-opacity:1;stroke:none;stroke-width:0.0332015;stroke-miterlimit:4;stroke-dasharray:none;stroke-opacity:1"
       id="ellipse989"
       cx="-154.63301"
       cy="67.263405"
       rx="9.6661777"
       ry="15.615402"
       transform="scale(-1,1)" />
    <path
       style="fill:#000000;stroke-width:0.042842"
       id="path991"
       width="9.0131884"
       height="6.5625319"
       x="-384.15439"
       y="-196.44978"
       transform="matrix(-0.9166316,-0.39973305,0.64600693,0.76333154,0,0)"
       sodipodi:type="rect"
       d="m -384.15439,-196.44978 h 9.01319 v 6.56253 h -9.01319 z" />
    <path
       style="fill:#000000;fill-opacity:1;stroke:none;stroke-width:0.0356765;stroke-miterlimit:4;stroke-dasharray:none;stroke-opacity:1"
       id="path993"
       width="18.109179"
       height="3.3785362"
       x="-388.21429"
       y="-230.58511"
       transform="matrix(-0.76168788,-0.64794411,0.25339558,0.96736274,0,0)"
       sodipodi:type="rect"
       d="m -388.21429,-230.58511 h 18.10917 v 3.37853 h -18.10917 z" />
    <path
       style="fill:#000000;fill-opacity:1;stroke:none;stroke-width:0.0356765;stroke-miterlimit:4;stroke-dasharray:none;stroke-opacity:1"
       id="path995"
       width="18.109179"
       height="3.3785362"
       x="40.867035"
       y="56.81559"
       transform="matrix(0.76168788,-0.64794411,-0.25339558,0.96736274,0,0)"
       sodipodi:type="rect"
       d="m 40.867035,56.81559 h 18.109178 v 3.378536 H 40.867035 Z" />
  </g>
</svg>
